<svg width="177" height="28" viewBox="0 0 177 28" fill="none" xmlns="http://www.w3.org/2000/svg">
<path d="M11.5344 26.9414C7.19161 24.0296 7.47049 15.8603 12.1719 8.7021C16.8733 1.54387 24.2043 -1.8937 28.5472 1.05856C32.89 3.97039 32.6111 12.1397 27.9097 19.2979C23.2083 26.4561 15.8773 29.8937 11.5344 26.9414Z" fill="url(#paint0_linear)"/>
<path d="M18.7855 26.7797C22.3315 23.9083 21.5347 16.831 16.9528 10.9669C12.3709 5.10279 5.75703 2.67627 2.21104 5.50721C-1.33494 8.37859 -0.538099 15.4559 4.04379 21.32C8.62568 27.2246 15.2395 29.6511 18.7855 26.7797Z" fill="url(#paint1_linear)"/>
<path d="M114.647 25.8088H34.8429V27.9927H114.647V25.8088Z" fill="#F7941D"/>
<path d="M52.4114 6.47754C47.7498 6.47754 44.1241 10.1173 44.1241 14.8086C44.1241 19.3381 47.5506 23.0183 51.7739 23.0183C53.2082 23.0183 54.0848 22.7352 55.3199 21.8455L56.3558 21.0771V22.5735H60.5791V15.1321C60.5791 10.1173 57.1526 6.47754 52.4114 6.47754ZM52.3317 18.691C50.1802 18.691 48.4271 16.9116 48.4271 14.7277C48.4271 12.5438 50.1802 10.7644 52.3317 10.7644C54.4832 10.7644 56.2362 12.5438 56.2362 14.7277C56.2362 16.9116 54.4832 18.691 52.3317 18.691Z" fill="#F7941D"/>
<path d="M71.4178 6.47755C70.1827 6.47755 69.107 6.80109 67.9117 7.56949L66.8359 8.257V0.00683594H62.6525V14.2424C62.6525 19.3381 66.0789 23.0183 70.8202 23.0183C75.4818 23.0183 79.1074 19.3381 79.1074 14.6468C79.1473 10.1982 75.6013 6.47755 71.4178 6.47755ZM70.8999 18.691C68.7484 18.691 66.9953 16.9116 66.9953 14.7277C66.9953 12.5439 68.7484 10.7644 70.8999 10.7644C73.0514 10.7644 74.8044 12.5439 74.8044 14.7277C74.8044 16.9116 73.0514 18.691 70.8999 18.691Z" fill="#F7941D"/>
<path d="M89.6643 6.47755C88.4292 6.47755 87.3534 6.80109 86.1581 7.56949L85.0824 8.257V0.00683594H80.8989V14.2424C80.8989 19.3381 84.3254 23.0183 89.0666 23.0183C93.7282 23.0183 97.3539 19.3381 97.3539 14.6468C97.3539 10.1982 93.8477 6.47755 89.6643 6.47755ZM89.1065 18.691C86.955 18.691 85.2019 16.9116 85.2019 14.7277C85.2019 12.5439 86.955 10.7644 89.1065 10.7644C91.258 10.7644 93.0111 12.5439 93.0111 14.7277C93.0111 16.9116 91.2978 18.691 89.1065 18.691Z" fill="#F7941D"/>
<path d="M103.729 6.92236H99.3859V22.5734H103.729V6.92236Z" fill="#F7941D"/>
<path d="M114.686 10.6835V6.96286H110.463V0.00683594H106.279V16.4263C106.279 19.055 106.757 20.3896 108.152 21.4411C109.347 22.3308 110.343 22.533 112.933 22.533H114.686V18.7719H113.371C111.1 18.7719 110.423 18.1248 110.423 15.9814V10.6835H114.686Z" fill="#F7941D"/>
<path d="M42.9696 6.47754C38.2283 6.47754 34.8019 10.1173 34.8019 15.1321V22.5735H39.065V15.6174C39.065 12.5438 40.5392 10.6835 43.0094 10.6835C43.0493 10.6835 43.0891 10.6835 43.1688 10.6835C43.2086 10.6835 43.2485 10.6835 43.2883 10.6835V6.47754H43.1688C43.0891 6.47754 43.0493 6.47754 42.9696 6.47754Z" fill="#F7941D"/>
<path d="M133.053 18.8529L129.348 16.669C128.67 17.8418 127.435 18.6102 126.001 18.6102C123.849 18.6102 122.136 16.8712 122.136 14.6873C122.136 12.5035 123.849 10.7645 126.001 10.7645C127.435 10.7645 128.67 11.5733 129.348 12.7057L133.053 10.5218C131.659 8.05485 129.029 6.39673 126.001 6.39673C121.499 6.39673 117.873 10.1174 117.873 14.6469C117.873 19.1764 121.539 22.8971 126.001 22.8971C129.029 23.0184 131.659 21.3198 133.053 18.8529Z" fill="#005098"/>
<path d="M142.018 6.47778C137.356 6.47778 133.73 10.1176 133.73 14.8088C133.73 19.3383 137.157 23.0186 141.38 23.0186C142.815 23.0186 143.691 22.7355 144.926 21.8457L145.962 21.0773V22.5737H150.185V15.1324C150.185 10.1176 146.759 6.47778 142.018 6.47778ZM141.978 18.6913C139.826 18.6913 138.073 16.9118 138.073 14.7279C138.073 12.5441 139.826 10.7646 141.978 10.7646C144.129 10.7646 145.882 12.5441 145.882 14.7279C145.882 16.9118 144.129 18.6913 141.978 18.6913Z" fill="#005098"/>
<path d="M159.867 6.47778C155.126 6.47778 151.699 10.1176 151.699 15.1324V22.5737H155.923V15.6177C155.923 12.5441 157.397 10.6837 159.867 10.6837C159.907 10.6837 159.947 10.6837 160.026 10.6837C160.066 10.6837 160.106 10.6837 160.146 10.6837V6.47778H160.026C159.986 6.47778 159.907 6.47778 159.867 6.47778Z" fill="#005098"/>
<path d="M176.801 16.5478C176.92 15.9816 177 15.3749 177 14.7279C177 14.1212 176.92 13.5146 176.801 12.908C176.004 9.22775 172.737 6.43726 168.872 6.43726C164.37 6.43726 160.744 10.1579 160.744 14.6874C160.744 19.2169 164.41 22.9376 168.872 22.9376C171.541 22.9376 173.932 21.6434 175.406 19.6213L171.86 17.1544C171.143 18.0441 170.067 18.6103 168.872 18.6103C167.398 18.6103 166.083 17.761 165.446 16.5073H172.298H176.801V16.5478ZM165.446 12.908C166.083 11.6543 167.398 10.805 168.872 10.805C170.346 10.805 171.661 11.6543 172.298 12.908H165.446Z" fill="#005098"/>
<defs>
<linearGradient id="paint0_linear" x1="30.8757" y1="3.04097" x2="10.4704" y2="26.0666" gradientUnits="userSpaceOnUse">
<stop stop-color="#F58124"/>
<stop offset="0.1921" stop-color="#F78D20"/>
<stop offset="0.2852" stop-color="#F7941D"/>
<stop offset="0.7114" stop-color="#FBB040"/>
</linearGradient>
<linearGradient id="paint1_linear" x1="0.288749" y1="7.47441" x2="19.6294" y2="25.9768" gradientUnits="userSpaceOnUse">
<stop offset="0.0772579" stop-color="#FBB040"/>
<stop offset="0.4713" stop-color="#F7941D"/>
<stop offset="0.6114" stop-color="#F78D20"/>
<stop offset="0.9003" stop-color="#F58124"/>
</linearGradient>
</defs>
</svg>
