<svg xmlns="http://www.w3.org/2000/svg" width="76" height="76" viewBox="0 0 76 76">
  <g id="Group_8749" data-name="Group 8749" transform="translate(-8419 -3101)">
    <rect id="Rectangle_1640" data-name="Rectangle 1640" width="76" height="76" rx="38" transform="translate(8419 3101)" fill="#b0c6e3" opacity="0.4"/>
    <path id="file-alt" d="M11.5,14H13a1.5,1.5,0,0,0,0-3H11.5a1.5,1.5,0,0,0,0,3Zm0,3a1.5,1.5,0,0,0,0,3h9a1.5,1.5,0,0,0,0-3ZM28,12.41a1.965,1.965,0,0,0-.09-.4V11.87a1.6,1.6,0,0,0-.285-.42h0l-9-9h0a1.605,1.605,0,0,0-.42-.285.48.48,0,0,0-.135,0A1.32,1.32,0,0,0,17.575,2H8.5A4.5,4.5,0,0,0,4,6.5v21A4.5,4.5,0,0,0,8.5,32h15A4.5,4.5,0,0,0,28,27.5V12.41Zm-9-5.3L22.885,11H20.5A1.5,1.5,0,0,1,19,9.5ZM25,27.5A1.5,1.5,0,0,1,23.5,29H8.5A1.5,1.5,0,0,1,7,27.5V6.5A1.5,1.5,0,0,1,8.5,5H16V9.5A4.5,4.5,0,0,0,20.5,14H25ZM20.5,23h-9a1.5,1.5,0,0,0,0,3h9a1.5,1.5,0,0,0,0-3Z" transform="translate(8441 3122)" fill="#3849ab"/>
  </g>
</svg>
