<svg xmlns="http://www.w3.org/2000/svg" width="200" height="200" viewBox="0 0 200 200"><g transform="translate(-582.125 -124.125)"><circle cx="100" cy="100" r="100" transform="translate(582.125 124.125)" fill="#e6edf6"/><g transform="translate(610.147 147.807)"><path d="M709.321,186.833l4.288-3.449L683.244,145.29l-4.288,3.449Z" transform="translate(-592.48 -141.721)" fill="#e04f64"/><path d="M736.9,143.43l-8.876-13.819-6.308,4.944-6.3-12.227-8.876,3.568,7.552,14.642-7.552,5.921,8.876,13.819,6.3-4.945,6.308,12.227,8.876-3.569-7.552-14.641Z" transform="translate(-615.776 -122.329)" fill="#e04f64"/><path d="M243.247,571.393l-75.532-43.612a1.784,1.784,0,0,1,0-3.09l56.413-32.57a1.791,1.791,0,0,1,1.786,0l75.531,43.608a1.784,1.784,0,0,1,0,3.091l-56.413,32.573A1.789,1.789,0,0,1,243.247,571.393Z" transform="translate(-159.942 -434.447)" fill="#91c6e2" style="mix-blend-mode:multiply;isolation:isolate"/><path d="M305.938,431.649v1.839L233.41,391.614a1.79,1.79,0,0,0-1.785,0L178.216,422.45v-1.687h-3.9v5.162h.012a1.766,1.766,0,0,0,.88,1.351l75.531,43.609a1.789,1.789,0,0,0,1.785,0l56.413-32.571a1.763,1.763,0,0,0,.889-1.5h0v-5.162Z" transform="translate(-166.275 -349.561)" fill="#abddef"/><path d="M250.743,440.217l-75.531-43.608a1.785,1.785,0,0,1,0-3.091l56.412-32.57a1.782,1.782,0,0,1,1.785,0l75.532,43.608a1.786,1.786,0,0,1,0,3.092l-56.414,32.568A1.771,1.771,0,0,1,250.743,440.217Z" transform="translate(-166.275 -323.66)" fill="#fff"/><path d="M547.677,411.408l-73.369-42.361L484.12,363l74.567,42.052Z" transform="translate(-419.639 -325.594)" fill="#91c6e2" style="mix-blend-mode:multiply;isolation:isolate"/><path d="M512.168,355l-78.8-45.49,11.013-6.36,78.795,45.5Z" transform="translate(-385.064 -275.05)" fill="#3849ab"/><g transform="translate(56.446 33.501)"><path d="M544.687,368.9a5.032,5.032,0,0,0-4.564,0,1.389,1.389,0,0,0,0,2.633,5.043,5.043,0,0,0,4.564,0C545.951,370.812,545.951,369.63,544.687,368.9Z" transform="translate(-530.872 -363.622)" fill="#4f4fe8"/><path d="M598.1,403.168a5.032,5.032,0,0,0-4.563,0,1.389,1.389,0,0,0,0,2.633,5.032,5.032,0,0,0,4.563,0A1.389,1.389,0,0,0,598.1,403.168Z" transform="translate(-575.986 -392.559)" fill="#4f4fe8"/><ellipse cx="3.227" cy="1.863" rx="3.227" ry="1.863" transform="translate(0)" fill="#4f4fe8"/></g><g transform="translate(106.17 78.94)"><path d="M818.116,722.37h0a1.142,1.142,0,0,1-1.8-.749l-10.579-41.11a2.361,2.361,0,0,1,.971-2.455h0a1.141,1.141,0,0,1,1.8.749l10.579,41.11A2.361,2.361,0,0,1,818.116,722.37Z" transform="translate(-805.679 -670.446)" fill="#3849ab"/><path d="M893.29,674.78h0a1.143,1.143,0,0,1-1.8-.749l-10.582-41.111a2.368,2.368,0,0,1,.975-2.455h0a1.144,1.144,0,0,1,1.8.749l10.575,41.107A2.379,2.379,0,0,1,893.29,674.78Z" transform="translate(-869.164 -630.252)" fill="#3849ab"/><path d="M833.393,672.464l-11.444,7.206a.773.773,0,0,1-1.222-.494l-.141-.519a1.607,1.607,0,0,1,.643-1.66l11.451-7.206a.775.775,0,0,1,1.222.494l.141.519A1.6,1.6,0,0,1,833.393,672.464Z" transform="translate(-818.234 -663.521)" fill="#3849ab"/><path d="M845.311,717.089l-11.451,7.2a.769.769,0,0,1-1.215-.491l-.141-.523a1.612,1.612,0,0,1,.643-1.664l11.451-7.2a.775.775,0,0,1,1.222.491l.141.523A1.619,1.619,0,0,1,845.311,717.089Z" transform="translate(-828.298 -701.209)" fill="#3849ab"/><path d="M857.232,761.707l-11.451,7.2a.774.774,0,0,1-1.222-.491l-.134-.519a1.6,1.6,0,0,1,.636-1.664l11.458-7.2a.768.768,0,0,1,1.215.491l.134.519A1.594,1.594,0,0,1,857.232,761.707Z" transform="translate(-838.366 -738.893)" fill="#3849ab"/><path d="M869.147,806.325l-11.444,7.2a.773.773,0,0,1-1.222-.491l-.141-.519a1.612,1.612,0,0,1,.643-1.664l11.451-7.2a.767.767,0,0,1,1.215.495l.141.519A1.583,1.583,0,0,1,869.147,806.325Z" transform="translate(-848.43 -776.575)" fill="#3849ab"/><path d="M881.065,850.946l-11.451,7.206a.768.768,0,0,1-1.215-.495l-.141-.523a1.608,1.608,0,0,1,.643-1.66l11.451-7.206a.776.776,0,0,1,1.222.494l.141.523A1.614,1.614,0,0,1,881.065,850.946Z" transform="translate(-858.498 -814.263)" fill="#3849ab"/></g><path d="M122.953,841.667a3.831,3.831,0,0,1,5.528-1.674l.073.042h0l3.846,2.218a4.394,4.394,0,0,1,.47.233.394.394,0,0,0,.072.042h0l.612.353,35.086,20.133a4.342,4.342,0,0,1,.538.311l3.278,5.214h0l2.579,4.111-5.524-1.01h0l-4.714-.855-39.779-23.065h0l-.074-.042A4.789,4.789,0,0,1,122.953,841.667Z" transform="translate(-122.557 -727.973)" fill="#91c6e2" style="mix-blend-mode:multiply;isolation:isolate"/><path d="M128.48,791.3c.026.018.049.032.073.046h0l7.447,4.3a4.794,4.794,0,0,1,1.992,6.015,3.834,3.834,0,0,1-5.529,1.674l-7.446-4.3v0c-.025-.014-.049-.025-.074-.039a4.8,4.8,0,0,1-1.992-6.019A3.841,3.841,0,0,1,128.48,791.3Z" transform="translate(-122.557 -686.851)" fill="#f95769"/><path d="M137.993,813.867a3.834,3.834,0,0,1-5.529,1.674l-7.446-4.3h0a.747.747,0,0,1-.074-.039,4.8,4.8,0,0,1-1.992-6.019Z" transform="translate(-122.557 -699.054)" fill="#e24b61"/><path d="M156.235,824.417l36.034,20.8V839.58l-37.185-21.472Z" transform="translate(-150.029 -709.972)" fill="#e58270"/><path d="M385.637,956.243l10.238,7.5-10.238-1.858C383.491,959.535,383.513,957.656,385.637,956.243Z" transform="translate(-343.397 -826.636)" fill="#ddebf2"/><path d="M198.525,833.443c.574-2.045,1.454-2.692,4.382-1.815l-35.626-20.444c-3.19-.83-4.413-.035-4.79,1.455Z" transform="translate(-156.285 -703.838)" fill="#ef8f7f"/><path d="M150.741,809.192a3.888,3.888,0,0,1,5.58-1.763c.024.014.048.032.072.046v-.007l1.429.827a3.88,3.88,0,0,0-5.161,1.975,4.838,4.838,0,0,0,1.94,6.107.731.731,0,0,1,.074.039v0l-1.92-1.081h0a.76.76,0,0,0-.075-.039A4.842,4.842,0,0,1,150.741,809.192Z" transform="translate(-146.008 -700.476)" fill="#e6f6ff"/><path d="M150.741,821.815l1.92,1.081a4.838,4.838,0,0,0,1.94,6.1l.074.042h0l-1.92-1.081h0a.432.432,0,0,1-.075-.042A4.834,4.834,0,0,1,150.741,821.815Z" transform="translate(-146.008 -713.101)" fill="#ddebf2"/><path d="M398.723,941.081l5.856,9.318-10.238-7.509C394.554,940.771,396.606,939.647,398.723,941.081Z" transform="translate(-352.102 -813.291)" fill="#e6f6ff"/><path d="M430.086,981.553l-2.582-4.1s-.445-.466-1.063.424-.908.148-1.476,1.236-.4,1.441-.4,1.441Z" transform="translate(-377.607 -844.443)" fill="#4b4882"/><ellipse cx="3.227" cy="1.863" rx="3.227" ry="1.863" transform="translate(64.273 36.489)" fill="#f95769"/><ellipse cx="3.227" cy="1.863" rx="3.227" ry="1.863" transform="translate(72.575 41.815)" fill="#f6d142"/><ellipse cx="3.227" cy="1.863" rx="3.227" ry="1.863" transform="translate(55.968 31.754)" fill="#dcf1ff"/><g transform="translate(117.022 68.048)"><path d="M876.922,564.939c-1.893-1.091-1.893-2.865,0-3.956a7.565,7.565,0,0,1,6.845,0c1.893,1.091,1.893,2.865,0,3.956A7.568,7.568,0,0,1,876.922,564.939Zm5.983-3.451a5.641,5.641,0,0,0-5.122,0c-1.413.812-1.413,2.137,0,2.953a5.665,5.665,0,0,0,5.122,0C884.319,563.625,884.319,562.3,882.906,561.488Z" transform="translate(-875.503 -560.164)" fill="#4f4fe8"/><path d="M912.448,594.45h0A.747.747,0,0,1,911.5,594l-.855-2.395a.734.734,0,0,1,.445-.943h0a.734.734,0,0,1,.947.445l.862,2.391A.747.747,0,0,1,912.448,594.45Z" transform="translate(-905.145 -585.886)" fill="#4f4fe8"/></g><g transform="translate(117.416 66.539)"><path d="M879.452,555.226c-1.886-1.088-1.886-2.864,0-3.956a7.6,7.6,0,0,1,6.852,0c1.886,1.091,1.886,2.868,0,3.956A7.6,7.6,0,0,1,879.452,555.226Zm5.984-3.454a5.628,5.628,0,0,0-5.115,0c-1.413.812-1.413,2.14,0,2.953a5.65,5.65,0,0,0,5.115,0C886.848,553.912,886.848,552.584,885.436,551.772Z" transform="translate(-878.038 -550.455)" fill="#c2ecff"/><path d="M914.981,584.74h0a.739.739,0,0,1-.947-.445l-.855-2.391a.737.737,0,0,1,.445-.95h0a.739.739,0,0,1,.947.445l.855,2.395A.733.733,0,0,1,914.981,584.74Z" transform="translate(-907.681 -576.177)" fill="#c2ecff"/></g><g transform="translate(47.243 57.698)"><path d="M440.137,505.119l-2.172-1.257-3.74,2.162-3.73-2.151,3.744-2.162-7.707-4.451,2.656-1.533,19.572-2.158,3.518,2.031-11.348,6.552,2.176,1.254ZM437.2,500l3.062-1.766c.512-.293,1.271-.714,2.285-1.247s1.611-.844,1.791-.922l-.1-.056c-.978.212-2.006.381-3.073.505l-8.311.978Z" transform="translate(-426.531 -493.569)" fill="#4b4882"/><path d="M539.306,542.722a22.359,22.359,0,0,1-8.552,3.143,11.283,11.283,0,0,1-7.043-1.441q-3.126-1.8-2.366-4.073t5.344-4.917a22.6,22.6,0,0,1,8.587-3.175,11.24,11.24,0,0,1,7.022,1.434q3.115,1.807,2.352,4.1T539.306,542.722Zm-8.831-5.1a15.227,15.227,0,0,0-4.186,3.08c-.572.774-.41,1.423.495,1.943a4.5,4.5,0,0,0,3.384.276,21.868,21.868,0,0,0,5.337-2.4,14.529,14.529,0,0,0,4.172-3.1,1.184,1.184,0,0,0-.466-1.946,4.462,4.462,0,0,0-3.377-.272A22.271,22.271,0,0,0,530.475,537.625Z" transform="translate(-506.486 -526.182)" fill="#4b4882"/><path d="M625.9,612.365l-2.172-1.254-3.744,2.158-3.726-2.148L620,608.96l-7.7-4.451,2.653-1.529,19.572-2.162,3.522,2.031L626.69,609.4l2.172,1.254Zm-2.939-5.118,3.062-1.766q.763-.44,2.285-1.247c1.014-.54,1.611-.844,1.79-.918l-.1-.06q-1.467.318-3.073.505l-8.308.978Z" transform="translate(-583.422 -584.152)" fill="#4b4882"/></g><g transform="translate(32.964 68.964)"><path d="M339.992,574.486l-5.335-3.08,9.263-5.348,5.333,3.08-1.609.929-3.37-1.943-2.035,1.169,3.136,1.816-1.609.925-3.138-1.809-2.386,1.378,3.37,1.946Z" transform="translate(-334.657 -566.058)" fill="#f95769"/><path d="M386.933,597.479l-3.555,2.056-1.964-1.137,9.263-5.344,2.7,1.558q1.889,1.086,2.107,2.01t-1.182,1.724a4.679,4.679,0,0,1-1.9.583,7.183,7.183,0,0,1-2.271-.159q-1.033,3.01-1.31,3.9l-2.179-1.258,1.342-3.327Zm1.595-.922.634.367a4.33,4.33,0,0,0,1.685.615,2.283,2.283,0,0,0,1.42-.307c.438-.254.6-.519.486-.8a2.626,2.626,0,0,0-1.127-.971l-.6-.346Z" transform="translate(-374.147 -588.859)" fill="#f95769"/><path d="M442.045,629.3l-3.553,2.052-1.964-1.134,9.261-5.348,2.7,1.561q1.886,1.091,2.105,2.006c.145.615-.251,1.194-1.18,1.731a4.7,4.7,0,0,1-1.907.579,7.179,7.179,0,0,1-2.271-.159c-.685,2.01-1.127,3.306-1.31,3.9l-2.179-1.257,1.342-3.331Zm1.6-.918.636.367a4.378,4.378,0,0,0,1.685.615,2.322,2.322,0,0,0,1.416-.311c.442-.251.6-.519.487-.8a2.613,2.613,0,0,0-1.123-.971l-.6-.346Z" transform="translate(-420.695 -615.733)" fill="#f95769"/><path d="M514.652,669.872a9.8,9.8,0,0,1-4.677,1.385,8.515,8.515,0,0,1-4.5-1.176q-2.129-1.229-2.031-2.6c.06-.915.865-1.819,2.405-2.706a9.617,9.617,0,0,1,4.677-1.384,8.532,8.532,0,0,1,4.5,1.194q2.135,1.229,2.038,2.593T514.652,669.872Zm-6.761-3.9q-1.552.9-1.748,1.688t.978,1.469q2.347,1.356,5.475-.445t.788-3.158a4.318,4.318,0,0,0-2.554-.565A7.022,7.022,0,0,0,507.891,665.969Z" transform="translate(-477.206 -648.263)" fill="#f95769"/><path d="M563.6,699.488l-3.55,2.049-1.964-1.13,9.261-5.351,2.7,1.558q1.886,1.091,2.105,2.013c.145.611-.247,1.187-1.183,1.727a4.667,4.667,0,0,1-1.9.579,6.96,6.96,0,0,1-2.268-.159q-1.033,3.01-1.311,3.9l-2.183-1.261,1.342-3.327Zm1.6-.922.636.364a4.3,4.3,0,0,0,1.685.615,2.336,2.336,0,0,0,1.42-.307c.438-.254.6-.522.48-.805a2.573,2.573,0,0,0-1.12-.968l-.6-.343Z" transform="translate(-523.362 -675.006)" fill="#f95769"/></g><path d="M687.828,222.048l-8.873-13.818,21.49-16.849,8.876,13.819Z" transform="translate(-592.48 -180.649)" fill="#f95769"/><path d="M700.445,189.757l8.876-3.568-21.493-41.662-8.873,3.568Z" transform="translate(-592.48 -141.076)" fill="#f95769"/></g></g></svg>