<svg xmlns="http://www.w3.org/2000/svg" width="14" height="14" viewBox="0 0 14 14"><path d="M14.364,9.909H13.091V8a.636.636,0,0,0-.636-.636H8.636V6.091H9.909a.636.636,0,0,0,.636-.636V1.636A.636.636,0,0,0,9.909,1H6.091a.636.636,0,0,0-.636.636V5.455a.636.636,0,0,0,.636.636H7.364V7.364H3.545A.636.636,0,0,0,2.909,8V9.909H1.636A.636.636,0,0,0,1,10.545v3.818A.636.636,0,0,0,1.636,15H5.455a.636.636,0,0,0,.636-.636V10.545a.636.636,0,0,0-.636-.636H4.182V8.636h7.636V9.909H10.545a.636.636,0,0,0-.636.636v3.818a.636.636,0,0,0,.636.636h3.818A.636.636,0,0,0,15,14.364V10.545A.636.636,0,0,0,14.364,9.909ZM4.818,11.182v2.545H2.273V11.182ZM6.727,4.818V2.273H9.273V4.818Zm7,8.909H11.182V11.182h2.545Z" transform="translate(-1 -1)" fill="currentColor"/></svg>