<svg xmlns="http://www.w3.org/2000/svg" width="24" height="24" viewBox="0 0 24 24"><circle cx="12" cy="12" r="12" fill="#e6edf6"/><path d="M533.8,457.662a.666.666,0,0,0-.667.667V461a.667.667,0,0,1-.667.667h-9.333a.666.666,0,0,1-.667-.667V454.6l3.92,3.92a2,2,0,0,0,2.823,0l.024-.025a.667.667,0,0,0-.953-.927.667.667,0,0,1-.933,0l-3.94-3.913h3.06a.667.667,0,1,0,0-1.333h-3.333a2,2,0,0,0-2,2V461a2,2,0,0,0,2,2h9.333a2,2,0,0,0,2-2v-2.667A.667.667,0,0,0,533.8,457.662Zm-5.353-6.673v2a.667.667,0,0,0,.667.667h2a.667.667,0,1,0,0-1.333h-.82a2,2,0,1,1,.167,2.827.669.669,0,1,0-.88,1.007,3.338,3.338,0,1,0,.2-5.16h0a.667.667,0,0,0-1.333-.007Z" transform="translate(-516.132 -444.319)" fill="#222"/></svg>