<svg width="16" height="17" viewBox="0 0 16 17" fill="none" xmlns="http://www.w3.org/2000/svg">
<path d="M15.2 10.4379C14.72 10.4379 14.4 10.7553 14.4 11.2313V14.4048C14.4 14.8809 14.08 15.1982 13.6 15.1982H2.4C1.92 15.1982 1.6 14.8809 1.6 14.4048V11.2313C1.6 10.7553 1.28 10.4379 0.8 10.4379C0.32 10.4379 0 10.7553 0 11.2313V14.4048C0 15.7536 1.04 16.785 2.4 16.785H13.6C14.96 16.785 16 15.7536 16 14.4048V11.2313C16 10.8346 15.68 10.4379 15.2 10.4379ZM7.44004 11.7866C7.52004 11.866 7.59998 11.9453 7.67998 11.9453C7.83998 12.0246 8.08002 12.0246 8.32002 11.9453C8.40002 11.9453 8.47996 11.866 8.55996 11.7866L11.76 8.61308C12.08 8.29573 12.08 7.81968 11.76 7.50232C11.44 7.18497 10.96 7.18497 10.64 7.50232L8.8 9.32715V1.71068C8.8 1.23465 8.48 0.917297 8 0.917297C7.52 0.917297 7.2 1.23465 7.2 1.71068V9.32715L5.35996 7.50232C5.03996 7.18497 4.56004 7.18497 4.24004 7.50232C3.92004 7.81968 3.92004 8.29573 4.24004 8.61308L7.44004 11.7866Z" fill="#005098"/>
</svg>
