<svg width="17" height="20" viewBox="0 0 17 20" fill="none" xmlns="http://www.w3.org/2000/svg">
<path d="M16.1 7C16.1 6.9 16.1 6.80007 16 6.70007V6.59998C16 6.49998 15.8999 6.40005 15.7999 6.30005L9.79993 0.300049C9.69993 0.200049 9.6 0.199976 9.5 0.0999756H9.40002C9.30002 -2.44156e-05 9.19998 0 9.09998 0H3C1.3 0 0 1.3 0 3V17C0 18.7 1.3 20 3 20H13C14.7 20 16 18.7 16 17V7H16.1ZM10.1 3.40002L12.7 6H11.1C10.5 6 10.1 5.6 10.1 5V3.40002ZM14.1 17C14.1 17.6 13.7 18 13.1 18H3.09998C2.49998 18 2.09998 17.6 2.09998 17V3C2.09998 2.4 2.49998 2 3.09998 2H8.09998V5C8.09998 6.7 9.39998 8 11.1 8H14.1V17ZM10.4 10.3L7.09998 13.6L5.79993 12.3C5.39993 11.9 4.80002 11.9 4.40002 12.3C4.00002 12.7 4.00002 13.3001 4.40002 13.7001L6.40002 15.7001C6.80002 16.1001 7.39993 16.1001 7.79993 15.7001L11.7999 11.7001C12.1999 11.3001 12.1999 10.7 11.7999 10.3C11.3999 9.90005 10.8 9.90005 10.4 10.3Z" fill="#4F4B66"/>
</svg>
