<svg xmlns="http://www.w3.org/2000/svg" width="14" height="14" viewBox="0 0 14 14"><path d="M9,14.6H4.1a.7.7,0,0,1-.7-.7V4.1a.7.7,0,0,1,.7-.7H7.6V5.5A2.1,2.1,0,0,0,9.7,7.6h2.1v.7a.7.7,0,1,0,1.4,0V6.857a.917.917,0,0,0-.042-.189V6.6a.749.749,0,0,0-.133-.2h0l-4.2-4.2h0a.749.749,0,0,0-.2-.133.224.224,0,0,0-.063,0A.616.616,0,0,0,8.333,2H4.1A2.1,2.1,0,0,0,2,4.1v9.8A2.1,2.1,0,0,0,4.1,16H9a.7.7,0,0,0,0-1.4ZM9,4.386,10.81,6.2H9.7A.7.7,0,0,1,9,5.5ZM5.5,6.2a.7.7,0,0,0,0,1.4h.7a.7.7,0,0,0,0-1.4Zm10.294,8.6-.819-.812A2.407,2.407,0,0,0,14.6,11.1h0a2.464,2.464,0,1,0-.609,3.877l.812.819a.7.7,0,1,0,.994-.994Zm-2.218-1.225a1.078,1.078,0,0,1-1.477,0,1.05,1.05,0,0,1-.3-.735,1.022,1.022,0,0,1,.308-.742,1.046,1.046,0,0,1,1.791.742,1.05,1.05,0,0,1-.322.735ZM9.7,9H5.5a.7.7,0,1,0,0,1.4H9.7A.7.7,0,1,0,9.7,9ZM8.3,13.2a.7.7,0,1,0,0-1.4H5.5a.7.7,0,1,0,0,1.4Z" transform="translate(-2 -2)" fill="#3849ab"/></svg>