<svg xmlns="http://www.w3.org/2000/svg" width="76" height="76" viewBox="0 0 76 76"><rect width="76" height="76" rx="38" fill="#b0c6e3" opacity="0.4"/><path d="M22.5,29h-12A4.5,4.5,0,0,1,6,24.5V9.5a1.5,1.5,0,1,0-3,0v15A7.5,7.5,0,0,0,10.5,32h12a1.5,1.5,0,0,0,0-3Zm-9-10.5A1.5,1.5,0,0,0,15,20h7.5a1.5,1.5,0,0,0,0-3H15A1.5,1.5,0,0,0,13.5,18.5ZM30,12.41A1.965,1.965,0,0,0,29.91,12V11.87a1.6,1.6,0,0,0-.285-.42h0l-9-9h0a1.6,1.6,0,0,0-.42-.285.48.48,0,0,0-.135,0A1.32,1.32,0,0,0,19.575,2H13.5A4.5,4.5,0,0,0,9,6.5v15A4.5,4.5,0,0,0,13.5,26h12A4.5,4.5,0,0,0,30,21.5V12.41Zm-9-5.3L24.885,11H22.5A1.5,1.5,0,0,1,21,9.5ZM27,21.5A1.5,1.5,0,0,1,25.5,23h-12A1.5,1.5,0,0,1,12,21.5V6.5A1.5,1.5,0,0,1,13.5,5H18V9.5a4.5,4.5,0,0,0,.27,1.5H15a1.5,1.5,0,0,0,0,3H27Z" transform="translate(22 21)" fill="#3849ab"/></svg>