<svg xmlns="http://www.w3.org/2000/svg" width="24" height="24" viewBox="0 0 24 24"><circle cx="12" cy="12" r="12" fill="#e6edf6"/><g transform="translate(5 6)"><path d="M533.223,383.636a.636.636,0,0,0-.636.636v2.545a.637.637,0,0,1-.636.636h-8.909a.636.636,0,0,1-.636-.636v-6.1l3.742,3.748a1.909,1.909,0,0,0,2.7,0l1.044-1.044a.639.639,0,0,0-.9-.9l-1.044,1.044a.637.637,0,0,1-.891,0l-3.748-3.742H527.5a.636.636,0,0,0,0-1.273h-4.454a1.909,1.909,0,0,0-1.909,1.909v6.364a1.909,1.909,0,0,0,1.909,1.909h8.909a1.909,1.909,0,0,0,1.909-1.909v-2.545A.636.636,0,0,0,533.223,383.636Z" transform="translate(-521.132 -377.273)" fill="#222"/><path d="M540.045,378.006l-1.273-1.273a.639.639,0,1,0-.9.9l.191.185h-2.285a.636.636,0,0,0,0,1.273h2.285l-.191.185a.639.639,0,0,0,.9.9l1.273-1.273A.657.657,0,0,0,540.045,378.006Z" transform="translate(-526.225 -376.546)" fill="#222"/></g></svg>