<svg xmlns="http://www.w3.org/2000/svg" width="17.111" height="14" viewBox="0 0 17.111 14"><path d="M14.222,15.444H4.889a2.333,2.333,0,0,1-2.333-2.333V6.889A.778.778,0,0,0,1,6.889v6.222A3.889,3.889,0,0,0,4.889,17h9.333a.778.778,0,0,0,0-1.556ZM11.111,9.222H8a.778.778,0,1,0,0,1.556h3.111a.778.778,0,0,0,0-1.556Zm7-.824a1.019,1.019,0,0,0-.047-.21v-.07a.832.832,0,0,0-.148-.218h0L13.25,3.233h0a.832.832,0,0,0-.218-.148h-.07A.684.684,0,0,0,12.706,3H6.444A2.333,2.333,0,0,0,4.111,5.333v6.222a2.333,2.333,0,0,0,2.333,2.333h9.333a2.333,2.333,0,0,0,2.333-2.333V8.4ZM13.444,5.652l2.014,2.014H14.222a.778.778,0,0,1-.778-.778Zm3.111,5.9a.778.778,0,0,1-.778.778H6.444a.778.778,0,0,1-.778-.778V5.333a.778.778,0,0,1,.778-.778h5.444V6.889a2.333,2.333,0,0,0,2.333,2.333h2.333ZM8,7.667H9.556a.778.778,0,1,0,0-1.556H8A.778.778,0,1,0,8,7.667Z" transform="translate(-1 -3)" fill="currentColor"/></svg>