<svg xmlns="http://www.w3.org/2000/svg" width="12.604" height="14" viewBox="0 0 12.604 14"><path d="M10,14.6H5.1a.7.7,0,0,1-.7-.7V4.1a.7.7,0,0,1,.7-.7H8.6V5.5a2.1,2.1,0,0,0,2.1,2.1h2.1V9a.7.7,0,1,0,1.4,0V6.858a.917.917,0,0,0-.042-.189V6.606a.749.749,0,0,0-.133-.2h0l-4.2-4.2h0a.749.749,0,0,0-.2-.133.224.224,0,0,0-.063,0A.616.616,0,0,0,9.335,2H5.1A2.1,2.1,0,0,0,3,4.1v9.8A2.1,2.1,0,0,0,5.1,16H10a.7.7,0,1,0,0-1.4ZM10,4.387,11.813,6.2H10.7a.7.7,0,0,1-.7-.7ZM6.5,6.2a.7.7,0,1,0,0,1.4h.7a.7.7,0,1,0,0-1.4ZM10.7,9H6.5a.7.7,0,0,0,0,1.4h4.2a.7.7,0,0,0,0-1.4Zm4.7,3.7L14,11.3a.724.724,0,0,0-.994,0l-1.4,1.4a.7.7,0,0,0,.994.994l.2-.21V15.3a.7.7,0,1,0,1.4,0V13.487l.2.21A.7.7,0,1,0,15.4,12.7Zm-6.1.5a.7.7,0,1,0,0-1.4H6.5a.7.7,0,1,0,0,1.4Z" transform="translate(-3 -2)" fill="currentColor"/></svg>