<svg xmlns="http://www.w3.org/2000/svg" width="14" height="14" viewBox="0 0 14 14"><path d="M9,4.8a.7.7,0,0,0-.7.7v7a.7.7,0,1,0,1.4,0v-7A.7.7,0,0,0,9,4.8ZM5.5,9a.7.7,0,0,0-.7.7v2.8a.7.7,0,1,0,1.4,0V9.7A.7.7,0,0,0,5.5,9Zm7-1.4a.7.7,0,0,0-.7.7v4.2a.7.7,0,1,0,1.4,0V8.3A.7.7,0,0,0,12.5,7.6ZM13.9,2H4.1A2.1,2.1,0,0,0,2,4.1v9.8A2.1,2.1,0,0,0,4.1,16h9.8A2.1,2.1,0,0,0,16,13.9V4.1A2.1,2.1,0,0,0,13.9,2Zm.7,11.9a.7.7,0,0,1-.7.7H4.1a.7.7,0,0,1-.7-.7V4.1a.7.7,0,0,1,.7-.7h9.8a.7.7,0,0,1,.7.7Z" transform="translate(-2 -2)" fill="currentColor"/></svg>