<svg xmlns="http://www.w3.org/2000/svg" width="14" height="14" viewBox="0 0 14 14"><path d="M13.9,2h-7A2.1,2.1,0,0,0,4.8,4.1v.7H4.1A2.1,2.1,0,0,0,2,6.9v7A2.1,2.1,0,0,0,4.1,16h7a2.1,2.1,0,0,0,2.1-2.1v-.7h.7A2.1,2.1,0,0,0,16,11.1v-7A2.1,2.1,0,0,0,13.9,2ZM11.8,13.9a.7.7,0,0,1-.7.7h-7a.7.7,0,0,1-.7-.7V9h8.4Zm0-6.3H3.4V6.9a.7.7,0,0,1,.7-.7h7a.7.7,0,0,1,.7.7Zm2.8,3.5a.7.7,0,0,1-.7.7h-.7V6.9a2.1,2.1,0,0,0-.126-.7H14.6Zm0-6.3H6.2V4.1a.7.7,0,0,1,.7-.7h7a.7.7,0,0,1,.7.7Z" transform="translate(-2 -2)" fill="currentColor"/></svg>