<svg xmlns="http://www.w3.org/2000/svg" width="11.2" height="14" viewBox="0 0 11.2 14"><path d="M7.5,7.6h.7a.7.7,0,1,0,0-1.4H7.5a.7.7,0,1,0,0,1.4ZM7.5,9a.7.7,0,0,0,0,1.4h4.2a.7.7,0,0,0,0-1.4Zm7.7-2.142a.917.917,0,0,0-.042-.189V6.606a.749.749,0,0,0-.133-.2h0l-4.2-4.2h0a.749.749,0,0,0-.2-.133.224.224,0,0,0-.063,0A.616.616,0,0,0,10.335,2H6.1A2.1,2.1,0,0,0,4,4.1v9.8A2.1,2.1,0,0,0,6.1,16h7a2.1,2.1,0,0,0,2.1-2.1V6.858ZM11,4.387,12.813,6.2H11.7a.7.7,0,0,1-.7-.7ZM13.8,13.9a.7.7,0,0,1-.7.7h-7a.7.7,0,0,1-.7-.7V4.1a.7.7,0,0,1,.7-.7H9.6V5.5a2.1,2.1,0,0,0,2.1,2.1h2.1Zm-2.1-2.1H7.5a.7.7,0,1,0,0,1.4h4.2a.7.7,0,0,0,0-1.4Z" transform="translate(-4 -2)" fill="currentColor"/></svg>