<svg xmlns="http://www.w3.org/2000/svg" width="15.556" height="14" viewBox="0 0 15.556 14"><path d="M8.222,11.556h3.111a.778.778,0,1,0,0-1.556H8.222a.778.778,0,1,0,0,1.556Zm7-8.556H4.333A2.333,2.333,0,0,0,2,5.333V7.667a.778.778,0,0,0,.778.778h.778v6.222A2.333,2.333,0,0,0,5.889,17h7.778A2.333,2.333,0,0,0,16,14.667V8.444h.778a.778.778,0,0,0,.778-.778V5.333A2.333,2.333,0,0,0,15.222,3Zm-.778,11.667a.778.778,0,0,1-.778.778H5.889a.778.778,0,0,1-.778-.778V8.444h9.333ZM16,6.889H3.556V5.333a.778.778,0,0,1,.778-.778H15.222A.778.778,0,0,1,16,5.333Z" transform="translate(-2 -3)" fill="currentColor"/></svg>