<svg xmlns="http://www.w3.org/2000/svg" width="20.497" height="17.141" viewBox="0 0 20.497 17.141"><g transform="translate(0 -68.375)"><path d="M18.832,78.824a1.531,1.531,0,0,0-.666-.7,2.024,2.024,0,0,0-.984-.244H15.273V76.289a2.241,2.241,0,0,0-2.227-2.227H7.636v-.318a2.143,2.143,0,0,0-.656-1.571,2.144,2.144,0,0,0-1.571-.656H2.227a2.144,2.144,0,0,0-1.571.656A2.143,2.143,0,0,0,0,73.743v9.545A2.143,2.143,0,0,0,.656,84.86a2.143,2.143,0,0,0,1.571.656H13.046a3.256,3.256,0,0,0,1.392-.343,3.229,3.229,0,0,0,1.153-.87l2.933-3.609a1.9,1.9,0,0,0,.457-1.193A1.571,1.571,0,0,0,18.832,78.824ZM1.273,73.743a.95.95,0,0,1,.954-.954H5.409a.95.95,0,0,1,.954.954v.636a.951.951,0,0,0,.954.955h5.727a.95.95,0,0,1,.955.954V77.88H6.364a3.212,3.212,0,0,0-1.392.343,3.351,3.351,0,0,0-1.153.87L1.273,82.225V73.743ZM17.53,79.888,14.606,83.5a2.273,2.273,0,0,1-1.561.746H2.227q-.527,0-.527-.348a.726.726,0,0,1,.179-.4L4.8,79.888a2.053,2.053,0,0,1,.711-.522,2,2,0,0,1,.85-.214H17.182q.527,0,.527.348A.648.648,0,0,1,17.53,79.888Z" transform="translate(0)" fill="#3849ab"/><path d="M15.443,3.378h.407l-.207-.2a.693.693,0,0,1,.98-.98L18,3.578a.69.69,0,0,1,0,.98l-1.38,1.38a.693.693,0,1,1-.98-.98l.207-.2h-.407a2.069,2.069,0,0,0-2.069,2.069v1.38a.69.69,0,0,1-1.38,0V6.827A3.449,3.449,0,0,1,15.443,3.378Z" transform="matrix(0.259, 0.966, -0.966, 0.259, 17.712, 56.273)" fill="#3849ab"/></g></svg>