<svg xmlns="http://www.w3.org/2000/svg" width="24" height="24" viewBox="0 0 24 24"><circle cx="12" cy="12" r="12" fill="#e6edf6"/><g transform="translate(5 6)"><path d="M533.223,422.139a.636.636,0,0,0-.636.636v2.545a.636.636,0,0,1-.636.636h-8.909a.636.636,0,0,1-.636-.636v-6.1l3.742,3.748a1.909,1.909,0,0,0,2.7,0l1.044-1.044a.639.639,0,0,0-.9-.9l-1.044,1.044a.635.635,0,0,1-.891,0l-3.748-3.742H527.5a.636.636,0,0,0,0-1.273h-4.455a1.909,1.909,0,0,0-1.909,1.909v6.364a1.909,1.909,0,0,0,1.909,1.909h8.909a1.909,1.909,0,0,0,1.909-1.909v-2.545A.637.637,0,0,0,533.223,422.139Z" transform="translate(-521.132 -415.777)" fill="#222"/><path d="M535.319,417.413l1.273,1.273a.639.639,0,1,0,.9-.9l-.191-.185h2.285a.636.636,0,1,0,0-1.273H537.3l.191-.185a.639.639,0,0,0-.9-.9l-1.273,1.273A.657.657,0,0,0,535.319,417.413Z" transform="translate(-526.226 -415.05)" fill="#222"/></g></svg>