<svg width="12" height="12" viewBox="0 0 12 12" fill="none" xmlns="http://www.w3.org/2000/svg">
<path d="M12 3.13562C12 2.95472 11.9396 2.83415 11.819 2.71354L9.28639 0.180905C9.04518 -0.0603016 8.68343 -0.0603016 8.44222 0.180905L6.75375 1.8693L0.180787 8.44219C0.0601838 8.5628 0 8.68337 0 8.86427V11.397C0 11.7588 0.241206 12 0.603016 12H3.13565C3.31656 12 3.49749 11.9397 3.6181 11.8191L10.1909 5.24618L11.8794 3.55778C11.9397 3.49748 12 3.43715 12 3.37684C12 3.31654 12 3.25627 12 3.25627C11.9397 3.25627 11.9397 3.19593 12 3.13562ZM2.83415 10.8543H1.14567V9.16578L7.11547 3.19598L8.80394 4.88438L2.83415 10.8543ZM9.70847 4.04015L8.01999 2.35175L8.8643 1.50751L10.5528 3.19598L9.70847 4.04015Z" fill="#005098"/>
</svg>
