<svg xmlns="http://www.w3.org/2000/svg" width="16.047" height="16" viewBox="0 0 16.047 16"><path d="M16.04,10.865a2.534,2.534,0,0,1-.539-.1,7.6,7.6,0,0,1-1.055-.314,1.61,1.61,0,0,0-2,.805l-.177.362a9.808,9.808,0,0,1-2.142-1.61A9.808,9.808,0,0,1,8.519,7.87l.338-.225a1.61,1.61,0,0,0,.805-2,8.318,8.318,0,0,1-.314-1.055c-.04-.177-.072-.362-.1-.548A2.416,2.416,0,0,0,6.836,2.04H4.42A2.416,2.416,0,0,0,2,4.786a15.3,15.3,0,0,0,13.3,13.254h.306a2.41,2.41,0,0,0,2.416-2.424V13.2A2.416,2.416,0,0,0,16.04,10.865Zm.4,4.831a.805.805,0,0,1-.274.6.854.854,0,0,1-.66.2A13.689,13.689,0,0,1,3.663,4.6a.878.878,0,0,1,.2-.66.805.805,0,0,1,.6-.274H6.884a.805.805,0,0,1,.805.636q.048.33.121.652A8.954,8.954,0,0,0,8.181,6.2l-1.127.523A.805.805,0,0,0,6.659,7.8,11.668,11.668,0,0,0,12.3,13.434a.853.853,0,0,0,1.071-.419l.5-1.127a11.024,11.024,0,0,0,1.272.37q.322.072.652.121a.805.805,0,0,1,.636.805Z" transform="translate(-1.982 -2.04)" fill="#3849ab"/></svg>