<svg xmlns="http://www.w3.org/2000/svg" width="16.747" height="16" viewBox="0 0 16.747 16"><path d="M18.726,8.485a.836.836,0,0,0-.719-.56l-4.758-.694L11.116,2.908a.836.836,0,0,0-1.505,0L7.478,7.223l-4.758.7a.824.824,0,0,0-.468,1.4l3.454,3.345-.836,4.75a.836.836,0,0,0,1.229.9l4.265-2.233,4.265,2.233a.778.778,0,0,0,.385.1.841.841,0,0,0,.828-1L15,12.683l3.454-3.345A.836.836,0,0,0,18.726,8.485ZM13.583,11.83a.836.836,0,0,0-.243.736l.6,3.512L10.8,14.406a.886.886,0,0,0-.786,0L6.868,16.078l.6-3.512a.836.836,0,0,0-.243-.736L4.719,9.321l3.521-.51a.836.836,0,0,0,.636-.46l1.488-3.186L11.935,8.36a.836.836,0,0,0,.636.46l3.521.51Z" transform="translate(-2.006 -2.436)" fill="#3849ab"/></svg>