<svg xmlns="http://www.w3.org/2000/svg" width="24" height="24" viewBox="0 0 24 24"><circle cx="12" cy="12" r="12" fill="#e6edf6"/><path d="M533.8,497.689a.667.667,0,0,0-.667.667v2.668a.667.667,0,0,1-.667.667h-9.338a.667.667,0,0,1-.667-.667v-6.4l3.922,3.929a2,2,0,0,0,2.835-.014l.006-.006.594-.587a.667.667,0,0,0-.934-.927l-.62.607a.667.667,0,0,1-.934,0l-3.929-3.942h3.061a.667.667,0,1,0,0-1.334h-3.335a2,2,0,0,0-2,2v6.67a2,2,0,0,0,2,2h9.338a2,2,0,0,0,2-2v-2.668A.667.667,0,0,0,533.8,497.689Zm.7-6a2.222,2.222,0,0,0-2.588-.36,2.168,2.168,0,0,0-2.588,3.422l2.141,2.081a.7.7,0,0,0,.474.193.668.668,0,0,0,.474-.193l2.114-2.114A2.175,2.175,0,0,0,534.505,491.686Zm-.94,2.081-1.647,1.647-1.641-1.647a.837.837,0,0,1,1.194-1.174.667.667,0,0,0,.943,0l0,0a.854.854,0,0,1,1.174,0A.841.841,0,0,1,533.565,493.767Z" transform="translate(-516.132 -485.057)" fill="#222"/></svg>