<svg width="15" height="12" viewBox="0 0 15 12" fill="none" xmlns="http://www.w3.org/2000/svg">
<path d="M15 5.25C15 5.175 15 5.10005 14.925 5.02505V4.94998C14.925 4.87498 14.85 4.80004 14.775 4.72504L10.275 0.225037C10.2 0.150037 10.125 0.149982 10.05 0.0749817H9.97504C9.90004 -1.83117e-05 9.825 0 9.75 0H2.25C0.975 0 0 0.975 0 2.25V9.75C0 11.025 0.975 12 2.25 12H12.75C14.025 12 15 11.025 15 9.75V5.25ZM10.5 2.55002L12.45 4.5H11.25C10.8 4.5 10.5 4.2 10.5 3.75V2.55002ZM13.5 9.75C13.5 10.2 13.2 10.5 12.75 10.5H2.25C1.8 10.5 1.5 10.2 1.5 9.75V2.25C1.5 1.8 1.8 1.5 2.25 1.5H9V3.75C9 5.025 9.975 6 11.25 6H13.5V9.75ZM3.75 6H6.75C7.2 6 7.5 5.7 7.5 5.25C7.5 4.8 7.2 4.5 6.75 4.5H3.75C3.3 4.5 3 4.8 3 5.25C3 5.7 3.3 6 3.75 6ZM3.75 7.5C3.3 7.5 3 7.8 3 8.25C3 8.7 3.3 9 3.75 9H11.25C11.7 9 12 8.7 12 8.25C12 7.8 11.7 7.5 11.25 7.5H3.75Z" fill="#A5AAC0"/>
</svg>
