<svg xmlns="http://www.w3.org/2000/svg" width="18.093" height="14" viewBox="0 0 18.093 14"><path d="M10.306,10.681a4.052,4.052,0,0,0,1.4-3.064,4.118,4.118,0,0,0-8.235,0,4.052,4.052,0,0,0,1.4,3.064,6.588,6.588,0,0,0-3.871,6,.824.824,0,0,0,1.647,0,4.941,4.941,0,1,1,9.882,0,.824.824,0,0,0,1.647,0A6.588,6.588,0,0,0,10.306,10.681Zm-2.718-.593a2.471,2.471,0,1,1,2.471-2.471A2.471,2.471,0,0,1,7.588,10.088Zm8.021.264A4.118,4.118,0,0,0,12.529,3.5a.824.824,0,0,0,0,1.647,2.466,2.466,0,0,1,1.235,4.6.822.822,0,0,0-.041,1.4l.321.214.107.058a5.765,5.765,0,0,1,3.294,5.254.824.824,0,0,0,1.647,0A7.412,7.412,0,0,0,15.609,10.352Z" transform="translate(-1 -3.5)" fill="currentColor"/></svg>