<svg width="12" height="12" viewBox="0 0 12 12" fill="none" xmlns="http://www.w3.org/2000/svg">
<path d="M6 10.806H1.8C1.44 10.806 1.2 10.5672 1.2 10.209V1.8508C1.2 1.49259 1.44 1.25379 1.8 1.25379H4.8V3.04483C4.8 4.05975 5.58 4.83587 6.6 4.83587H8.4V5.43288C8.4 5.79109 8.64 6.02989 9 6.02989C9.36 6.02989 9.6 5.79109 9.6 5.43288V4.17909C9.6 4.11939 9.6 4.05974 9.54 4.00003V3.94035C9.54 3.88065 9.48 3.82092 9.42 3.76121L5.82 0.179133C5.76 0.119432 5.7 0.119461 5.64 0.0597597H5.58C5.52 5.83012e-05 5.46 0 5.4 0H1.8C0.78 0 0 0.776118 0 1.79104V10.1492C0 11.1642 0.78 11.9403 1.8 11.9403H6C6.36 11.9403 6.6 11.7015 6.6 11.3433C6.6 10.985 6.36 10.806 6 10.806ZM6 2.08955L7.56001 3.64184H6.6C6.24 3.64184 6 3.40304 6 3.04483V2.08955ZM3 3.64184C2.64 3.64184 2.4 3.88065 2.4 4.23885C2.4 4.59706 2.64 4.83587 3 4.83587H3.6C3.96 4.83587 4.2 4.59706 4.2 4.23885C4.2 3.88065 3.96 3.64184 3.6 3.64184H3ZM11.82 10.9254L11.1 10.209C11.58 9.43287 11.4 8.41789 10.8 7.76118C10.02 6.92536 8.64 6.92537 7.8 7.70149C6.96 8.47761 6.96 9.85074 7.74 10.6866C8.4 11.3433 9.42001 11.5224 10.26 11.1045L10.98 11.8209C11.22 12.0597 11.58 12.0597 11.82 11.8209C12.06 11.5821 12.06 11.1642 11.82 10.9254ZM9.96001 9.91048C9.60001 10.2687 9.06 10.2687 8.7 9.91048C8.52 9.73138 8.46001 9.49251 8.46001 9.25371C8.46001 9.0149 8.58 8.77611 8.7 8.59701C9.06 8.2388 9.60001 8.2388 9.96001 8.59701C10.14 8.77611 10.26 9.0149 10.2 9.25371C10.2 9.49251 10.14 9.73138 9.96001 9.91048ZM6.6 6.02989H3C2.64 6.02989 2.4 6.2687 2.4 6.62691C2.4 6.98512 2.64 7.22392 3 7.22392H6.6C6.96 7.22392 7.2 6.98512 7.2 6.62691C7.2 6.2687 6.96 6.02989 6.6 6.02989ZM5.4 9.61198C5.76 9.61198 6 9.37317 6 9.01496C6 8.65675 5.76 8.41795 5.4 8.41795H3C2.64 8.41795 2.4 8.65675 2.4 9.01496C2.4 9.37317 2.64 9.61198 3 9.61198H5.4Z" fill="white"/>
</svg>
